<?xml version="1.0" encoding="utf-8" ?>
<svg xmlns="http://www.w3.org/2000/svg" xmlns:xlink="http://www.w3.org/1999/xlink" width="342" height="251" viewBox="0 0 342 251">
	<path d="M24 0C10.7452 0 0 10.7452 0 24L0 24.036C0 37.2908 10.7092 48 23.964 48L24 48C37.2548 48 48 37.2908 48 24.036L48 24C48 10.7452 37.2908 0 24.036 0L24 0Z" fill-rule="nonzero" transform="matrix(1 0 0 1 85.5 59)" fill="rgb(255, 255, 255)" fill-opacity="0.2"/>
	<defs>
		<clipPath id="clipPath8559001346">
			<path d="M0 0L24 0L24 24L0 24L0 0Z" fill-rule="nonzero" transform="matrix(1 0 0 1 97.5 71)"/>
		</clipPath>
	</defs>
	<g clip-path="url(#clipPath8559001346)">
		<path d="M6.75 0.75Q5.52264 0.75 4.40332 1.20073Q3.32511 1.63489 2.49453 2.42519Q1.66797 3.21168 1.21591 4.22804Q0.75 5.27555 0.75 6.42188Q0.75 8.87084 3.11265 13.1372Q4.63106 15.8791 6.75516 18.7486Q6.75549 18.749 6.75 18.749Q6.74451 18.749 6.74128 18.7535Q8.86902 15.8802 10.3874 13.1388Q12.75 8.87295 12.75 6.42187Q12.75 5.27555 12.2841 4.22804Q11.832 3.21168 11.0055 2.42519Q10.1749 1.63489 9.09668 1.20073Q7.97736 0.75 6.75 0.75L6.75 0.75ZM6.75 -0.75Q8.26802 -0.75 9.65698 -0.190701Q11.0012 0.350568 12.0395 1.33852Q13.0816 2.33015 13.6546 3.61844Q14.25 4.957 14.25 6.42187Q14.25 9.26059 11.6995 13.8655Q10.1333 16.6935 7.95403 19.6362Q7.50797 20.249 6.75 20.249Q5.99204 20.249 5.54953 19.6411Q3.36668 16.6922 1.80043 13.8639Q-0.75 9.25845 -0.75 6.42188Q-0.75 4.957 -0.154633 3.61844Q0.418374 2.33015 1.46055 1.33852Q2.49884 0.350568 3.84302 -0.190702Q5.23198 -0.75 6.75 -0.75L6.75 -0.75Z" fill-rule="nonzero" transform="matrix(1 0 0 1 102.75 73.25)" fill="rgb(255, 255, 255)"/>
		<circle cx="2.25" cy="2.25" r="2.25" stroke-width="1.5" transform="matrix(1 0 0 1 107.25 77.75)" stroke="rgb(255, 255, 255)" fill="transparent"/>
	</g>
	<path d="M24 0C10.7452 0 0 10.7452 0 24L0 24.036C0 37.2908 10.7092 48 23.964 48L24 48C37.2548 48 48 37.2908 48 24.036L48 24C48 10.7452 37.2908 0 24.036 0L24 0Z" fill-rule="nonzero" transform="matrix(1 0 0 1 208.5 78.6562)" fill="rgb(255, 255, 255)" fill-opacity="0.2"/>
	<defs>
		<clipPath id="clipPath7701423155">
			<path d="M0 0L24 0L24 24L0 24L0 0Z" fill-rule="nonzero" transform="matrix(1 0 0 1 220.5 90.6562)"/>
		</clipPath>
	</defs>
	<g clip-path="url(#clipPath7701423155)">
		<path d="M6.75 0.75Q5.52264 0.75 4.40332 1.20073Q3.32511 1.63489 2.49453 2.42519Q1.66797 3.21168 1.21591 4.22804Q0.75 5.27555 0.75 6.42188Q0.75 8.87084 3.11265 13.1372Q4.63106 15.8791 6.75516 18.7486Q6.75549 18.749 6.75 18.749Q6.74451 18.749 6.74128 18.7535Q8.86902 15.8802 10.3874 13.1388Q12.75 8.87295 12.75 6.42187Q12.75 5.27555 12.2841 4.22804Q11.832 3.21168 11.0055 2.42519Q10.1749 1.63489 9.09668 1.20073Q7.97736 0.75 6.75 0.75L6.75 0.75ZM6.75 -0.75Q8.26802 -0.75 9.65698 -0.190701Q11.0012 0.350568 12.0395 1.33852Q13.0816 2.33015 13.6546 3.61844Q14.25 4.957 14.25 6.42187Q14.25 9.26059 11.6995 13.8655Q10.1333 16.6935 7.95403 19.6362Q7.50797 20.249 6.75 20.249Q5.99204 20.249 5.54953 19.6411Q3.36668 16.6922 1.80043 13.8639Q-0.75 9.25845 -0.75 6.42188Q-0.75 4.957 -0.154633 3.61844Q0.418374 2.33015 1.46055 1.33852Q2.49884 0.350568 3.84302 -0.190702Q5.23198 -0.75 6.75 -0.75L6.75 -0.75Z" fill-rule="nonzero" transform="matrix(1 0 0 1 225.75 92.9062)" fill="rgb(255, 255, 255)"/>
		<circle cx="2.25" cy="2.25" r="2.25" stroke-width="1.5" transform="matrix(1 0 0 1 230.25 97.4062)" stroke="rgb(255, 255, 255)" fill="transparent"/>
	</g>
	<defs>
		<clipPath id="clipPath8795447698">
			<path d="M0 0L64 0L64 64L0 64L0 0Z" fill-rule="nonzero" transform="matrix(1 0 0 1 139 86)"/>
		</clipPath>
	</defs>
	<g clip-path="url(#clipPath8795447698)">
		<path d="M59.7739 22.5275C59.3239 17.4762 58.5827 16.4925 58.3027 16.1225C57.6589 15.2675 56.6289 14.7087 55.5389 14.1225C55.4066 14.0525 55.3286 13.9437 55.305 13.7959C55.2813 13.6481 55.3214 13.5203 55.4252 13.4125C55.6294 13.2054 55.781 12.965 55.8799 12.6914C55.9788 12.4178 56.016 12.1361 55.9914 11.8463C55.9427 11.3196 55.7221 10.879 55.3297 10.5245C54.9372 10.17 54.4765 9.99515 53.9477 10L51.9977 10C51.9559 10.0002 51.9142 10.0017 51.8725 10.0044C51.8307 10.0071 51.7892 10.0111 51.7477 10.0163C51.7192 10.0039 51.6903 9.99283 51.6609 9.98302C51.6314 9.9732 51.6016 9.9647 51.5714 9.9575C50.4164 7.51625 48.8352 4.17375 45.5577 2.5425C40.6964 0.125 31.7414 0 29.9914 0C28.2414 0 19.2864 0.125 14.4314 2.53875C11.1539 4.17 9.57269 7.5125 8.41769 9.95375L8.40769 9.97375C8.37889 9.9778 8.35038 9.98338 8.32218 9.99048C8.29397 9.99759 8.26623 10.0062 8.23894 10.0163C8.19747 10.0111 8.15588 10.0071 8.11418 10.0044C8.07248 10.0017 8.03073 10.0002 7.98894 10L6.03519 10C5.50634 9.99515 5.04568 10.17 4.65323 10.5245C4.26078 10.879 4.04018 11.3196 3.99144 11.8463C3.96898 12.1354 4.00784 12.4161 4.10803 12.6883C4.20822 12.9605 4.36061 13.1994 4.56519 13.405C4.66903 13.5128 4.70911 13.6406 4.68543 13.7884C4.66175 13.9362 4.58376 14.045 4.45144 14.115C3.36144 14.705 2.32644 15.2638 1.68769 16.115C1.40769 16.49 0.667693 17.4688 0.216443 22.52C-0.0335567 25.3625 -0.0710567 28.305 0.125193 30.2C0.536443 34.1375 1.30769 36.5175 1.34019 36.6162C1.46097 36.983 1.67039 37.2891 1.96846 37.5345C2.26652 37.78 2.6071 37.9268 2.99019 37.975L2.99019 38C2.99019 38.5523 3.18546 39.0237 3.57598 39.4142C3.9665 39.8047 4.43791 40 4.99019 40L11.9902 40C12.5425 40 13.0139 39.8047 13.4044 39.4142C13.7949 39.0237 13.9902 38.5523 13.9902 38C15.0664 38 15.8152 37.8075 16.6089 37.6025C17.1819 37.4481 17.7607 37.3197 18.3452 37.2172C18.9297 37.1147 19.5176 37.0385 20.1089 36.9888C23.9227 36.625 27.7152 36.5 29.9914 36.5C32.2214 36.5 36.1814 36.625 40.0014 36.9888C40.5951 37.0386 41.1854 37.115 41.7722 37.218C42.359 37.3209 42.94 37.4499 43.5152 37.605C44.2752 37.8 44.9964 37.98 45.9952 37.9987C45.9952 38.551 46.1905 39.0224 46.581 39.413C46.9715 39.8035 47.4429 39.9987 47.9952 39.9987L54.9952 39.9987C55.5475 39.9987 56.0189 39.8035 56.4094 39.413C56.7999 39.0224 56.9952 38.551 56.9952 37.9987L56.9952 37.9837C57.3792 37.9365 57.7208 37.7901 58.0199 37.5445C58.3189 37.299 58.529 36.9925 58.6502 36.625C58.6827 36.5262 59.4539 34.1463 59.8652 30.2087C60.0614 28.3125 60.0264 25.375 59.7739 22.5275ZM12.0327 11.6637C13.0327 9.53875 14.1764 7.13375 16.2127 6.12C19.1552 4.655 25.2539 3.995 29.9914 3.995C34.7289 3.995 40.8277 4.65 43.7702 6.12C45.8064 7.13375 46.9452 9.54 47.9502 11.6637L48.0752 11.935C48.2347 12.2719 48.2127 12.5964 48.0092 12.9087C47.8058 13.221 47.5178 13.3722 47.1452 13.3625C42.9914 13.25 34.2414 12.89 29.9914 12.89C25.7414 12.89 16.9914 13.2587 12.8314 13.3713C12.4589 13.381 12.1709 13.2297 11.9674 12.9175C11.764 12.6052 11.742 12.2806 11.9014 11.9438C11.9452 11.8512 11.9914 11.7575 12.0327 11.6637ZM13.5239 21.6175C12.4488 21.7469 11.3708 21.8435 10.2898 21.9073C9.20876 21.9711 8.12682 22.002 7.04394 22C5.71894 22 4.35269 21.625 4.09894 20.445C3.92519 19.6512 3.94394 19.205 4.03769 18.7563C4.11644 18.375 4.24144 18.0975 4.86644 18C6.49144 17.75 7.40019 18.0637 10.0602 18.8475C11.8239 19.3662 13.0964 20.0575 13.8214 20.605C14.1852 20.875 13.9914 21.58 13.5239 21.6175ZM41.1964 31.8675C39.5514 32.055 36.2614 31.9863 30.0289 31.9863C23.7964 31.9863 20.5077 32.055 18.8627 31.8675C17.1652 31.6787 15.0014 30.0737 16.4789 28.6437C17.4627 27.7012 19.7577 26.9963 22.8139 26.6C25.8702 26.2037 27.1639 26 30.0164 26C32.8689 26 34.0314 26.125 37.2189 26.6012C40.4064 27.0775 42.8152 27.7912 43.5539 28.645C44.9014 30.175 42.8927 31.6688 41.1964 31.875L41.1964 31.8675ZM55.8839 20.4437C55.6339 21.6287 54.2589 21.9987 52.9389 21.9987C51.8353 21.999 50.7327 21.9672 49.6309 21.9034C48.5291 21.8396 47.4301 21.7439 46.3339 21.6162C45.9514 21.58 45.7739 20.9087 46.1614 20.6037C46.8752 20.0425 48.1614 19.365 49.9227 18.8462C52.5827 18.0625 54.1164 17.7487 55.4339 18.01C55.7552 18.0737 55.9252 18.4187 55.9452 18.635C55.9893 18.9361 56.0062 19.2386 55.9959 19.5427C55.9856 19.8469 55.9483 20.1476 55.8839 20.445L55.8839 20.4437Z" fill-rule="nonzero" transform="matrix(1 0 0 1 141.009 98)" fill="rgb(255, 255, 255)"/>
	</g>
	<path d="M-0 96C0 42.9807 42.9807 -0 96 -0L96 0C149.019 0 192 42.9807 192 96L192 96C192 149.019 149.019 192 96 192L96 192C42.9807 192 -0 149.019 -0 96L0 96ZM96 2C44.0852 2 2 44.0852 2 96L2 96C2 147.915 44.0852 190 96 190L96 190C147.915 190 190 147.915 190 96L190 96C190 44.0852 147.915 2 96 2L96 2Z" fill-rule="nonzero" transform="matrix(1 0 0 1 85.5 59)" fill="rgb(255, 255, 255)" fill-opacity="0.3"/>
	<path d="M-0 48C0 21.4903 21.4903 -0 48 -0L48 0C74.5097 0 96 21.4903 96 48L96 48C96 74.5097 74.5097 96 48 96L48 96C21.4903 96 -0 74.5097 -0 48L0 48ZM48 2C22.5949 2 2 22.5949 2 48L2 48C2 73.4051 22.5949 94 48 94L48 94C73.4051 94 94 73.4051 94 48L94 48C94 22.5949 73.4051 2 48 2L48 2Z" fill-rule="nonzero" transform="matrix(1 0 0 1 160.5 78.6562)" fill="rgb(255, 255, 255)" fill-opacity="0.3"/>
	<path d="M64 0C28.6538 0 0 28.6538 0 64L0 64.096C0 99.4422 28.5578 128 63.904 128L64 128C99.3462 128 128 99.4422 128 64.096L128 64C128 28.6538 99.4422 0 64.096 0L64 0Z" fill-rule="nonzero" transform="matrix(1 0 0 1 114 78.6562)" fill="rgb(255, 255, 255)" fill-opacity="0.05"/>
</svg>
