<?xml version="1.0" encoding="utf-8" ?>
<svg xmlns="http://www.w3.org/2000/svg" xmlns:xlink="http://www.w3.org/1999/xlink" width="326" height="280" viewBox="0 0 326 280">
	<path d="M130 0C58.203 0 0 58.203 0 130L0 130.195C0 201.992 58.008 260 129.805 260L130 260C201.797 260 260 201.992 260 130.195L260 130C260 58.203 201.992 0 130.195 0L130 0Z" fill-rule="nonzero" transform="matrix(1 0 0 1 33 10)" fill="rgb(147, 51, 234)" fill-opacity="0.4"/>
	<path d="M100 0C44.7715 0 0 44.7715 0 100L0 100.15C0 155.378 44.6215 200 99.85 200L100 200C155.228 200 200 155.378 200 100.15L200 100C200 44.7715 155.378 0 100.15 0L100 0Z" fill-rule="nonzero" transform="matrix(1 0 0 1 63 40)" fill="rgb(168, 85, 247)" fill-opacity="0.4"/>
	<path d="M70 0C31.3401 0 0 31.3401 0 70L0 70.105C0 108.765 31.2351 140 69.895 140L70 140C108.66 140 140 108.765 140 70.105L140 70C140 31.3401 108.765 0 70.105 0L70 0Z" fill-rule="nonzero" transform="matrix(1 0 0 1 93 70)" fill="rgb(192, 132, 252)" fill-opacity="0.3"/>
	<defs>
		<clipPath id="clipPath8523561122">
			<path d="M0 0L80 0L80 80L0 80L0 0Z" fill-rule="nonzero" transform="matrix(1 0 0 1 123 100)"/>
		</clipPath>
	</defs>
	<g clip-path="url(#clipPath8523561122)">
		<path d="M70 5C71.3807 5 72.5592 5.48815 73.5355 6.46446C74.5118 7.44078 75 8.61929 75 10L75 50C75 51.3807 74.5118 52.5592 73.5355 53.5355C72.5592 54.5118 71.3807 55 70 55L10 55C8.61929 55 7.44078 54.5118 6.46447 53.5355C5.48816 52.5592 5 51.3807 5 50L5 10C5 8.61929 5.48816 7.44078 6.46447 6.46447C7.44078 5.48816 8.61929 5 10 5L70 5ZM10 0C7.23858 0 4.88155 0.97631 2.92893 2.92893C0.97631 4.88155 0 7.23858 0 10L0 50C0 52.7614 0.976311 55.1184 2.92893 57.0711C4.88155 59.0237 7.23858 60 10 60L70 60C72.7614 60 75.1184 59.0237 77.0711 57.0711C79.0237 55.1184 80 52.7614 80 50L80 10C80 7.23858 79.0237 4.88155 77.0711 2.92893C75.1184 0.97631 72.7614 0 70 0L10 0Z" fill-rule="nonzero" transform="matrix(1 0 0 1 123 110)" fill="rgb(255, 255, 255)"/>
		<path d="M0 2.5C0 1.80964 0.244078 1.22039 0.732234 0.732234C1.22039 0.244078 1.80964 0 2.5 0L12.5 0C13.1904 0 13.7796 0.244077 14.2678 0.732231C14.7559 1.22039 15 1.80964 15 2.5L15 7.5C15 8.19036 14.7559 8.77961 14.2678 9.26776C13.7796 9.75592 13.1904 10 12.5 10L2.5 10C1.80964 10 1.22039 9.75592 0.732232 9.26776C0.244077 8.77961 -3.97364e-07 8.19036 0 7.5L0 2.5ZM0 17.5C0 16.8096 0.244078 16.2204 0.732234 15.7322C1.22039 15.2441 1.80964 15 2.5 15L27.5 15C28.1904 15 28.7796 15.2441 29.2678 15.7322C29.7559 16.2204 30 16.8096 30 17.5C30 18.1904 29.7559 18.7796 29.2678 19.2678C28.7796 19.7559 28.1904 20 27.5 20L2.5 20C1.80964 20 1.22039 19.7559 0.732232 19.2678C0.244077 18.7796 -3.97364e-07 18.1904 0 17.5ZM0 27.5C0 26.8096 0.244078 26.2204 0.732234 25.7322C1.22039 25.2441 1.80964 25 2.5 25L7.5 25C8.19036 25 8.77961 25.2441 9.26777 25.7322C9.75592 26.2204 10 26.8096 10 27.5C10 28.1904 9.75592 28.7796 9.26777 29.2678C8.77961 29.7559 8.19036 30 7.5 30L2.5 30C1.80964 30 1.22039 29.7559 0.732232 29.2678C0.244077 28.7796 -3.97364e-07 28.1904 0 27.5ZM15 27.5C15 26.8096 15.2441 26.2204 15.7322 25.7322C16.2204 25.2441 16.8096 25 17.5 25L22.5 25C23.1904 25 23.7796 25.2441 24.2678 25.7322C24.7559 26.2204 25 26.8096 25 27.5C25 28.1904 24.7559 28.7796 24.2678 29.2678C23.7796 29.7559 23.1904 30 22.5 30L17.5 30C16.8096 30 16.2204 29.7559 15.7322 29.2678C15.2441 28.7796 15 28.1904 15 27.5ZM30 27.5C30 26.8096 30.2441 26.2204 30.7322 25.7322C31.2204 25.2441 31.8096 25 32.5 25L37.5 25C38.1904 25 38.7796 25.2441 39.2678 25.7322C39.7559 26.2204 40 26.8096 40 27.5C40 28.1904 39.7559 28.7796 39.2678 29.2678C38.7796 29.7559 38.1904 30 37.5 30L32.5 30C31.8096 30 31.2204 29.7559 30.7322 29.2678C30.2441 28.7796 30 28.1904 30 27.5ZM45 27.5C45 26.8096 45.2441 26.2204 45.7322 25.7322C46.2204 25.2441 46.8096 25 47.5 25L52.5 25C53.1904 25 53.7796 25.2441 54.2678 25.7322C54.7559 26.2204 55 26.8096 55 27.5C55 28.1904 54.7559 28.7796 54.2678 29.2678C53.7796 29.7559 53.1904 30 52.5 30L47.5 30C46.8096 30 46.2204 29.7559 45.7322 29.2678C45.2441 28.7796 45 28.1904 45 27.5Z" fill-rule="nonzero" transform="matrix(1 0 0 1 133 125)" fill="rgb(255, 255, 255)"/>
	</g>
	<rect width="64" height="40" rx="6" ry="6" transform="matrix(1 0 0 1 32 80)" fill="rgb(255, 255, 255)" fill-opacity="0.1"/>
	<defs>
		<clipPath id="clipPath0524586274">
			<path d="M0 0L24 0L24 24L0 24L0 0Z" fill-rule="nonzero" transform="matrix(1 0 0 1 52 88)"/>
		</clipPath>
	</defs>
	<g clip-path="url(#clipPath0524586274)">
		<path d="M0.574345 12.527Q3.09242 17.2234 8.18236 18.8012C8.70988 18.9647 9.27009 18.6696 9.43361 18.1421C9.59713 17.6146 9.30204 17.0544 8.77452 16.8908Q4.46765 15.5558 2.33697 11.5819Q0.38652 7.94419 1.28708 4.01134Q3.39021 3.97851 5.39365 3.27142Q7.37509 2.57209 9.01844 1.29813Q10.6618 2.57209 12.6432 3.27142Q14.6453 3.97802 16.7469 4.0113Q17.0208 5.24772 17.0045 6.52402Q16.9834 8.17855 16.4765 9.75365C16.3073 10.2794 16.5964 10.8427 17.1221 11.0119C17.6478 11.1811 18.2112 10.8921 18.3804 10.3663Q18.9794 8.50487 19.0044 6.54951Q19.0293 4.59417 18.4779 2.71802Q18.4544 2.63804 18.4179 2.56306Q18.3815 2.48808 18.3332 2.42017Q18.2848 2.35225 18.2259 2.29327Q18.167 2.2343 18.0992 2.18589Q18.0313 2.13748 17.9564 2.10098Q17.8814 2.06448 17.8015 2.04088Q17.7215 2.01729 17.6388 2.00726Q17.556 1.99723 17.4727 2.00105Q15.3308 2.09906 13.3089 1.38544Q11.2869 0.671816 9.68106 -0.748955Q9.61307 -0.809112 9.53535 -0.856041Q9.45763 -0.90297 9.37273 -0.935135Q9.28784 -0.9673 9.19853 -0.98365Q9.10923 -1 9.01844 -1Q8.92766 -1 8.83835 -0.98365Q8.74905 -0.9673 8.66415 -0.935135Q8.57925 -0.90297 8.50154 -0.856041Q8.42382 -0.809113 8.35582 -0.748955Q6.74994 0.671816 4.72801 1.38544Q2.70608 2.09906 0.564155 2.00105Q0.480885 1.99723 0.398133 2.00726Q0.315381 2.01729 0.235431 2.04088Q0.155482 2.06447 0.0805418 2.10098Q0.00560153 2.13748 -0.062261 2.18589Q-0.130123 2.23429 -0.189035 2.29326Q-0.247947 2.35224 -0.296281 2.42015Q-0.344616 2.48807 -0.381039 2.56304Q-0.417463 2.63802 -0.44097 2.718Q-1.94373 7.83059 0.574345 12.527Z" fill-rule="evenodd" transform="matrix(1 0 0 1 54.9816 91)" fill="rgb(255, 255, 255)"/>
		<path d="M6.70711 -0.707107C6.31659 -1.09763 5.68341 -1.09763 5.29289 -0.707107L2 2.58579L0.707107 1.29289C0.316586 0.902372 -0.316586 0.902372 -0.707107 1.29289C-1.09763 1.68341 -1.09763 2.31659 -0.707107 2.70711L1.29289 4.70711Q1.43355 4.84776 1.61732 4.92388Q1.80109 5 2 5Q2.19891 5 2.38268 4.92388Q2.56645 4.84776 2.70711 4.70711L6.70711 0.707107C7.09763 0.316586 7.09763 -0.316586 6.70711 -0.707107Z" fill-rule="evenodd" transform="matrix(1 0 0 1 67 105)" fill="rgb(255, 255, 255)"/>
	</g>
	<rect width="64" height="40" rx="6" ry="6" transform="matrix(1 0 0 1 222 128)" fill="rgb(255, 255, 255)" fill-opacity="0.1"/>
	<defs>
		<clipPath id="clipPath1044602125">
			<path d="M0 0L24 0L24 24L0 24L0 0Z" fill-rule="nonzero" transform="matrix(1 0 0 1 242 136)"/>
		</clipPath>
	</defs>
	<g clip-path="url(#clipPath1044602125)">
		<path d="M0.574345 12.527Q3.09242 17.2234 8.18236 18.8012C8.70988 18.9647 9.27009 18.6696 9.43361 18.1421C9.59713 17.6146 9.30204 17.0544 8.77452 16.8908Q4.46765 15.5558 2.33697 11.5819Q0.38652 7.94419 1.28708 4.01134Q3.39021 3.97851 5.39365 3.27142Q7.37509 2.57209 9.01844 1.29813Q10.6618 2.57209 12.6432 3.27142Q14.6453 3.97802 16.7469 4.0113Q17.0208 5.24772 17.0045 6.52402Q16.9834 8.17855 16.4765 9.75365C16.3073 10.2794 16.5964 10.8427 17.1221 11.0119C17.6478 11.1811 18.2112 10.8921 18.3804 10.3663Q18.9794 8.50487 19.0044 6.54951Q19.0293 4.59417 18.4779 2.71802Q18.4544 2.63804 18.4179 2.56306Q18.3815 2.48808 18.3332 2.42017Q18.2848 2.35225 18.2259 2.29327Q18.167 2.2343 18.0992 2.18589Q18.0313 2.13748 17.9564 2.10098Q17.8814 2.06448 17.8015 2.04088Q17.7215 2.01729 17.6388 2.00726Q17.556 1.99723 17.4727 2.00105Q15.3308 2.09906 13.3089 1.38544Q11.2869 0.671816 9.68106 -0.748955Q9.61307 -0.809112 9.53535 -0.856041Q9.45763 -0.90297 9.37273 -0.935135Q9.28784 -0.9673 9.19853 -0.98365Q9.10923 -1 9.01844 -1Q8.92766 -1 8.83835 -0.98365Q8.74905 -0.9673 8.66415 -0.935135Q8.57925 -0.90297 8.50154 -0.856041Q8.42382 -0.809113 8.35582 -0.748955Q6.74994 0.671816 4.72801 1.38544Q2.70608 2.09906 0.564155 2.00105Q0.480885 1.99723 0.398133 2.00726Q0.315381 2.01729 0.235431 2.04088Q0.155482 2.06447 0.0805418 2.10098Q0.00560153 2.13748 -0.062261 2.18589Q-0.130123 2.23429 -0.189035 2.29326Q-0.247947 2.35224 -0.296281 2.42015Q-0.344616 2.48807 -0.381039 2.56304Q-0.417463 2.63802 -0.44097 2.718Q-1.94373 7.83059 0.574345 12.527Z" fill-rule="evenodd" transform="matrix(1 0 0 1 244.982 139)" fill="rgb(255, 255, 255)"/>
		<path d="M6.70711 -0.707107C6.31659 -1.09763 5.68341 -1.09763 5.29289 -0.707107L2 2.58579L0.707107 1.29289C0.316586 0.902372 -0.316586 0.902372 -0.707107 1.29289C-1.09763 1.68341 -1.09763 2.31659 -0.707107 2.70711L1.29289 4.70711Q1.43355 4.84776 1.61732 4.92388Q1.80109 5 2 5Q2.19891 5 2.38268 4.92388Q2.56645 4.84776 2.70711 4.70711L6.70711 0.707107C7.09763 0.316586 7.09763 -0.316586 6.70711 -0.707107Z" fill-rule="evenodd" transform="matrix(1 0 0 1 257 153)" fill="rgb(255, 255, 255)"/>
	</g>
	<path d="M16 0C7.16344 0 0 7.16344 0 16L0 16.024C0 24.8606 7.13944 32 15.976 32L16 32C24.8366 32 32 24.8606 32 16.024L32 16C32 7.16344 24.8606 0 16.024 0L16 0Z" fill-rule="nonzero" transform="matrix(1 0 0 1 64 40)" fill="rgb(216, 180, 254)" fill-opacity="0.3"/>
	<path d="M12 0C5.37258 0 0 5.37258 0 12L0 12.018C0 18.6454 5.35458 24 11.982 24L12 24C18.6274 24 24 18.6454 24 12.018L24 12C24 5.37258 18.6454 0 12.018 0L12 0Z" fill-rule="nonzero" transform="matrix(1 0 0 1 246 160)" fill="rgb(216, 180, 254)" fill-opacity="0.3"/>
	<rect width="48" height="32" rx="6" ry="6" transform="matrix(1 0 0 1 56 208)" fill="rgb(255, 255, 255)" fill-opacity="0.2"/>
	<rect width="48" height="32" rx="6" ry="6" transform="matrix(1 0 0 1 0 208)" fill="rgb(255, 255, 255)" fill-opacity="0.2"/>
	<rect width="48" height="32" rx="6" ry="6" transform="matrix(1 0 0 1 0 208)" fill="rgb(255, 255, 255)" fill-opacity="0.2"/>
</svg>
