<?xml version="1.0" encoding="utf-8" ?>
<svg xmlns="http://www.w3.org/2000/svg" xmlns:xlink="http://www.w3.org/1999/xlink" width="326" height="280" viewBox="0 0 326 280">
	<path d="M130 0C58.203 0 0 58.203 0 130L0 130.195C0 201.992 58.008 260 129.805 260L130 260C201.797 260 260 201.992 260 130.195L260 130C260 58.203 201.992 0 130.195 0L130 0Z" fill-rule="nonzero" transform="matrix(1 0 0 1 33 10)" fill="rgb(168, 85, 247)" fill-opacity="0.4"/>
	<path d="M100 0C44.7715 0 0 44.7715 0 100L0 100.15C0 155.378 44.6215 200 99.85 200L100 200C155.228 200 200 155.378 200 100.15L200 100C200 44.7715 155.378 0 100.15 0L100 0Z" fill-rule="nonzero" transform="matrix(1 0 0 1 63 40)" fill="rgb(192, 132, 252)" fill-opacity="0.4"/>
	<path d="M70 0C31.3401 0 0 31.3401 0 70L0 70.105C0 108.765 31.2351 140 69.895 140L70 140C108.66 140 140 108.765 140 70.105L140 70C140 31.3401 108.765 0 70.105 0L70 0Z" fill-rule="nonzero" transform="matrix(1 0 0 1 93 70)" fill="rgb(216, 180, 254)" fill-opacity="0.3"/>
	<defs>
		<clipPath id="clipPath8000387152">
			<path d="M0 0L96 0L96 96L0 96L0 0Z" fill-rule="nonzero" transform="matrix(1 0 0 1 115 92)"/>
		</clipPath>
	</defs>
	<g clip-path="url(#clipPath8000387152)">
		<path d="M4 16Q4 18.5181 4.86709 20.6114Q5.73418 22.7047 7.51471 24.4853Q9.29525 26.2658 11.3886 27.1329Q13.4819 28 16 28Q18.5181 28 20.6114 27.1329Q22.7047 26.2658 24.4853 24.4853Q26.2658 22.7047 27.1329 20.6114Q28 18.5181 28 16Q28 13.4819 27.1329 11.3886Q26.2658 9.29525 24.4853 7.51472Q22.7047 5.73418 20.6114 4.86709Q18.5181 4 16 4Q13.4819 4 11.3886 4.86709Q9.29525 5.73418 7.51472 7.51472Q5.73418 9.29525 4.86709 11.3886Q4 13.4819 4 16L4 16ZM-4 16Q-4 11.8906 -2.52395 8.32713Q-1.04789 4.76362 1.85786 1.85786Q4.76362 -1.04789 8.32713 -2.52395Q11.8906 -4 16 -4Q20.1094 -4 23.6729 -2.52395Q27.2364 -1.04789 30.1421 1.85787Q33.0479 4.76362 34.5239 8.32713Q36 11.8906 36 16Q36 20.1094 34.5239 23.6729Q33.0479 27.2364 30.1421 30.1421Q27.2364 33.0479 23.6729 34.5239Q20.1094 36 16 36Q11.8906 36 8.32713 34.5239Q4.76362 33.0479 1.85786 30.1421Q-1.04789 27.2364 -2.52395 23.6729Q-4 20.1094 -4 16L-4 16Z" fill-rule="nonzero" transform="matrix(1 0 0 1 147 104)" fill="rgb(255, 255, 255)"/>
		<path d="M-4 16L-4 24C-4 26.2091 -2.20912 28 0 28C2.20912 28 4 26.2091 4 24L4 16Q4 13.4819 4.86709 11.3886Q5.73418 9.29526 7.51472 7.51472Q9.29526 5.73418 11.3886 4.86709Q13.4819 4 16 4L32 4C34.2091 4 36 2.20912 36 0C36 -2.20912 34.2091 -4 32 -4L16 -4Q11.8906 -4 8.32713 -2.52394Q4.76362 -1.04789 1.85786 1.85787Q-1.04789 4.76362 -2.52395 8.32713Q-4 11.8906 -4 16Z" fill-rule="evenodd" transform="matrix(1 0 0 1 139 152)" fill="rgb(255, 255, 255)"/>
		<path d="M26.8284 -2.82843C25.2663 -4.39051 22.7337 -4.39051 21.1716 -2.82843L8 10.3431L2.82843 5.17157C1.26634 3.60949 -1.26634 3.60949 -2.82843 5.17157C-4.39051 6.73366 -4.39051 9.26634 -2.82843 10.8284L5.17157 18.8284Q5.45015 19.107 5.77772 19.3259Q6.10529 19.5448 6.46927 19.6955Q6.83324 19.8463 7.21964 19.9231Q7.60603 20 8 20Q8.39396 20 8.78036 19.9231Q9.16676 19.8463 9.53073 19.6955Q9.89471 19.5448 10.2223 19.3259Q10.5499 19.107 10.8284 18.8284L26.8284 2.82843C28.3905 1.26634 28.3905 -1.26634 26.8284 -2.82843Z" fill-rule="evenodd" transform="matrix(1 0 0 1 175 160)" fill="rgb(255, 255, 255)"/>
	</g>
	<rect width="80" height="112" rx="12" ry="12" transform="matrix(1 0 0 1 32 96)" fill="rgb(255, 255, 255)" fill-opacity="0.1"/>
	<path d="M20 0C8.9543 0 0 8.9543 0 20L0 20.03C0 31.0757 8.92431 40 19.97 40L20 40C31.0457 40 40 31.0757 40 20.03L40 20C40 8.9543 31.0757 0 20.03 0L20 0Z" fill-rule="nonzero" transform="matrix(1 0 0 1 52 119)" fill="rgb(255, 255, 255)" fill-opacity="0.2"/>
	<path d="M3 0C1.34315 0 0 1.34315 0 3L0 3.0045C0 4.66135 1.34315 6 3 6L45 6C46.6569 6 48 4.66135 48 3.0045L48 3C48 1.34315 46.6569 0 45 0L3 0Z" fill-rule="nonzero" transform="matrix(1 0 0 1 48 167)" fill="rgb(255, 255, 255)" fill-opacity="0.4"/>
	<path d="M3 0C1.34315 0 0 1.34315 0 3L0 3.0045C0 4.66135 1.34315 6 3 6L29 6C30.6569 6 32 4.66135 32 3.0045L32 3C32 1.34315 30.6569 0 29 0L3 0Z" fill-rule="nonzero" transform="matrix(1 0 0 1 56 179)" fill="rgb(255, 255, 255)" fill-opacity="0.3"/>
	<rect width="80" height="112" rx="12" ry="12" transform="matrix(1 0 0 1 206 104)" fill="rgb(255, 255, 255)" fill-opacity="0.1"/>
	<path d="M20 0C8.9543 0 0 8.9543 0 20L0 20.03C0 31.0757 8.92431 40 19.97 40L20 40C31.0457 40 40 31.0757 40 20.03L40 20C40 8.9543 31.0757 0 20.03 0L20 0Z" fill-rule="nonzero" transform="matrix(1 0 0 1 226 127)" fill="rgb(255, 255, 255)" fill-opacity="0.2"/>
	<path d="M3 0C1.34315 0 0 1.34315 0 3L0 3.0045C0 4.66135 1.34315 6 3 6L45 6C46.6569 6 48 4.66135 48 3.0045L48 3C48 1.34315 46.6569 0 45 0L3 0Z" fill-rule="nonzero" transform="matrix(1 0 0 1 222 175)" fill="rgb(255, 255, 255)" fill-opacity="0.4"/>
	<path d="M3 0C1.34315 0 0 1.34315 0 3L0 3.0045C0 4.66135 1.34315 6 3 6L29 6C30.6569 6 32 4.66135 32 3.0045L32 3C32 1.34315 30.6569 0 29 0L3 0Z" fill-rule="nonzero" transform="matrix(1 0 0 1 230 187)" fill="rgb(255, 255, 255)" fill-opacity="0.3"/>
	<path d="M12 0C5.37258 0 0 5.37258 0 12L0 12.018C0 18.6454 5.35458 24 11.982 24L12 24C18.6274 24 24 18.6454 24 12.018L24 12C24 5.37258 18.6454 0 12.018 0L12 0Z" fill-rule="nonzero" transform="matrix(1 0 0 1 238 40)" fill="rgb(216, 180, 254)" fill-opacity="0.3"/>
	<path d="M16 0C7.16344 0 0 7.16344 0 16L0 16.024C0 24.8606 7.13944 32 15.976 32L16 32C24.8366 32 32 24.8606 32 16.024L32 16C32 7.16344 24.8606 0 16.024 0L16 0Z" fill-rule="nonzero" transform="matrix(1 0 0 1 64 152)" fill="rgb(216, 180, 254)" fill-opacity="0.3"/>
</svg>
