<?xml version="1.0" encoding="utf-8" ?>
<svg xmlns="http://www.w3.org/2000/svg" xmlns:xlink="http://www.w3.org/1999/xlink" width="326" height="280" viewBox="0 0 326 280">
	<path d="M130 0C58.203 0 0 58.203 0 130L0 130.195C0 201.992 58.008 260 129.805 260L130 260C201.797 260 260 201.992 260 130.195L260 130C260 58.203 201.992 0 130.195 0L130 0Z" fill-rule="nonzero" transform="matrix(1 0 0 1 33 10)" fill="rgb(79, 70, 229)" fill-opacity="0.4"/>
	<path d="M100 0C44.7715 0 0 44.7715 0 100L0 100.15C0 155.378 44.6215 200 99.85 200L100 200C155.228 200 200 155.378 200 100.15L200 100C200 44.7715 155.378 0 100.15 0L100 0Z" fill-rule="nonzero" transform="matrix(1 0 0 1 63 40)" fill="rgb(99, 102, 241)" fill-opacity="0.4"/>
	<path d="M70 0C31.3401 0 0 31.3401 0 70L0 70.105C0 108.765 31.2351 140 69.895 140L70 140C108.66 140 140 108.765 140 70.105L140 70C140 31.3401 108.765 0 70.105 0L70 0Z" fill-rule="nonzero" transform="matrix(1 0 0 1 93 70)" fill="rgb(129, 140, 248)" fill-opacity="0.3"/>
	<defs>
		<clipPath id="clipPath5877808312">
			<path d="M0 0L96 0L96 96L0 96L0 0Z" fill-rule="nonzero" transform="matrix(1 0 0 1 115 92)"/>
		</clipPath>
	</defs>
	<g clip-path="url(#clipPath5877808312)">
		<path d="M4 8Q4 8.8612 4.2813 9.54033Q4.56261 10.2195 5.17157 10.8284Q5.78054 11.4374 6.45967 11.7187Q7.1388 12 8 12Q8.86121 12 9.54033 11.7187Q10.2195 11.4374 10.8284 10.8284Q11.4374 10.2195 11.7187 9.54033Q12 8.8612 12 8Q12 7.13879 11.7187 6.45966Q11.4374 5.78053 10.8284 5.17157Q10.2195 4.56261 9.54034 4.2813Q8.86121 4 8 4Q7.13879 4 6.45966 4.2813Q5.78053 4.56261 5.17157 5.17157Q4.56261 5.78053 4.28131 6.45966Q4 7.13879 4 8ZM-4 8Q-4 5.54749 -3.10973 3.3982Q-2.21946 1.2489 -0.485278 -0.485291Q1.2489 -2.21947 3.3982 -3.10973Q5.5475 -4 8 -4Q10.4525 -4 12.6018 -3.10973Q14.7511 -2.21947 16.4853 -0.485286Q18.2195 1.2489 19.1097 3.3982Q20 5.54749 20 8Q20 10.4525 19.1097 12.6018Q18.2195 14.7511 16.4853 16.4853Q14.7511 18.2195 12.6018 19.1097Q10.4525 20 8 20Q5.54749 20 3.39819 19.1097Q1.24889 18.2195 -0.485278 16.4853Q-2.21946 14.7511 -3.10973 12.6018Q-4 10.4525 -4 8L-4 8Z" fill-rule="nonzero" transform="matrix(1 0 0 1 135 152)" fill="rgb(255, 255, 255)"/>
		<path d="M4 8.00001Q4 8.86121 4.2813 9.54033Q4.5626 10.2195 5.17156 10.8284Q5.78054 11.4374 6.45967 11.7187Q7.1388 12 8 12Q8.8612 12 9.54033 11.7187Q10.2195 11.4374 10.8284 10.8284Q11.4374 10.2195 11.7187 9.54033Q12 8.8612 12 8Q12 7.13879 11.7187 6.45966Q11.4374 5.78053 10.8284 5.17157Q10.2195 4.56261 9.54033 4.2813Q8.86121 4 8 4Q7.13879 4 6.45966 4.28131Q5.78053 4.56261 5.17156 5.17157Q4.5626 5.78053 4.2813 6.45966Q4 7.13879 4 7.99999L4 8.00001ZM-4 8.00001Q-4.00001 5.5475 -3.10974 3.3982Q-2.21947 1.2489 -0.485282 -0.485292Q1.2489 -2.21947 3.3982 -3.10974Q5.5475 -4 8 -4Q10.4525 -4 12.6018 -3.10973Q14.7511 -2.21947 16.4853 -0.485286Q18.2195 1.2489 19.1097 3.3982Q20 5.54749 20 8Q20 10.4525 19.1097 12.6018Q18.2195 14.7511 16.4853 16.4853Q14.7511 18.2195 12.6018 19.1097Q10.4525 20 8 20Q5.54749 20 3.39819 19.1097Q1.24889 18.2195 -0.485282 16.4853Q-2.21947 14.7511 -3.10974 12.6018Q-4.00001 10.4525 -4 7.99999L-4 8.00001Z" fill-rule="nonzero" transform="matrix(1 0 0 1 175 152)" fill="rgb(255, 255, 255)"/>
		<path d="M44 -4Q44.2243 -4 44.4471 -3.97494Q44.6699 -3.94987 44.8886 -3.90005Q45.1072 -3.85024 45.3189 -3.7763Q45.5306 -3.70235 45.7328 -3.60521Q45.9349 -3.50807 46.1249 -3.38895Q46.3149 -3.26982 46.4903 -3.13021Q46.6658 -2.9906 46.8246 -2.83224Q46.9834 -2.67389 47.1235 -2.49878L61.9225 16L64 16Q66.4525 16 68.6018 16.8903Q70.7511 17.7805 72.4853 19.5147Q74.2195 21.2489 75.1097 23.3982Q76 25.5475 76 28L76 44Q76 44.1965 75.9807 44.3921Q75.9615 44.5876 75.9231 44.7804Q75.8848 44.9731 75.8278 45.1611Q75.7707 45.3492 75.6955 45.5307Q75.6203 45.7123 75.5277 45.8856Q75.4351 46.0589 75.3259 46.2223Q75.2167 46.3857 75.092 46.5376Q74.9674 46.6895 74.8284 46.8284Q74.6895 46.9674 74.5376 47.092Q74.3857 47.2167 74.2223 47.3259Q74.0589 47.4351 73.8856 47.5277Q73.7123 47.6203 73.5307 47.6955Q73.3492 47.7707 73.1611 47.8278Q72.9731 47.8848 72.7803 47.9231Q72.5876 47.9615 72.3921 47.9807Q72.1965 48 72 48L64 48C61.7909 48 60 46.2091 60 44C60 41.7909 61.7909 40 64 40L68 40L68 28Q68 27.1388 67.7187 26.4597Q67.4374 25.7805 66.8284 25.1716Q66.2195 24.5626 65.5403 24.2813Q64.8612 24 64 24L4 24L4 40L8 40C10.2091 40 12 41.7909 12 44C12 46.2091 10.2091 48 8 48L0 48Q-0.196507 48 -0.392069 47.9807Q-0.58763 47.9615 -0.780361 47.9231Q-0.973093 47.8848 -1.16114 47.8278Q-1.34918 47.7707 -1.53073 47.6955Q-1.71228 47.6203 -1.88559 47.5277Q-2.05889 47.4351 -2.22228 47.3259Q-2.38567 47.2167 -2.53757 47.092Q-2.68948 46.9674 -2.82843 46.8284Q-2.96738 46.6895 -3.09204 46.5376Q-3.2167 46.3857 -3.32588 46.2223Q-3.43505 46.0589 -3.52768 45.8856Q-3.62032 45.7123 -3.69552 45.5307Q-3.77072 45.3492 -3.82776 45.1611Q-3.8848 44.9731 -3.92314 44.7804Q-3.96148 44.5876 -3.98074 44.3921Q-4 44.1965 -4 44L-4 20Q-4 19.2297 -3.71391 18.5144L4.28609 -1.48556Q4.34138 -1.62377 4.40678 -1.75749Q4.47218 -1.89121 4.54734 -2.01969Q4.6225 -2.14818 4.707 -2.27072Q4.79151 -2.39327 4.88488 -2.50919Q4.97826 -2.62512 5.07999 -2.73378Q5.18173 -2.84245 5.29126 -2.94325Q5.40079 -3.04405 5.5175 -3.13643Q5.63422 -3.22882 5.75748 -3.31227Q5.88075 -3.39572 6.00987 -3.46978Q6.13899 -3.54384 6.27326 -3.6081Q6.40753 -3.67236 6.54621 -3.72646Q6.68489 -3.78056 6.8272 -3.8242Q6.96951 -3.86785 7.11467 -3.90079Q7.25984 -3.93374 7.40705 -3.95581Q7.55426 -3.97787 7.7027 -3.98894Q7.85114 -4 8 -4L44 -4ZM32 4L10.7081 4L5.90813 16L32 16L32 4ZM40 16L40 4L42.0775 4L51.6775 16L40 16ZM24 48C21.7909 48 20 46.2091 20 44C20 41.7909 21.7909 40 24 40L48 40C50.2091 40 52 41.7909 52 44C52 46.2091 50.2091 48 48 48L24 48Z" fill-rule="evenodd" transform="matrix(1 0 0 1 127 116)" fill="rgb(255, 255, 255)"/>
	</g>
	<path d="M2 0C0.89543 0 0 0.89543 0 2L0 2.003C0 3.10757 0.895431 4 2 4L46 4C47.1046 4 48 3.10757 48 2.003L48 2C48 0.89543 47.1046 0 46 0L2 0Z" fill-rule="nonzero" transform="matrix(1 0 0 1 32 64)" fill="rgb(255, 255, 255)" fill-opacity="0.4"/>
	<path d="M2 0C0.89543 0 0 0.89543 0 2L0 2.003C0 3.10757 0.89543 4 2 4L62 4C63.1046 4 64 3.10757 64 2.003L64 2C64 0.89543 63.1046 0 62 0L2 0Z" fill-rule="nonzero" transform="matrix(1 0 0 1 214 196)" fill="rgb(255, 255, 255)" fill-opacity="0.4"/>
	<path d="M16 0C7.16344 0 0 7.16344 0 16L0 16.024C0 24.8606 7.13944 32 15.976 32L16 32C24.8366 32 32 24.8606 32 16.024L32 16C32 7.16344 24.8606 0 16.024 0L16 0Z" fill-rule="nonzero" transform="matrix(1 0 0 1 254 128)" fill="rgb(165, 180, 252)" fill-opacity="0.3"/>
	<path d="M12 0C5.37258 0 0 5.37258 0 12L0 12.018C0 18.6454 5.35458 24 11.982 24L12 24C18.6274 24 24 18.6454 24 12.018L24 12C24 5.37258 18.6454 0 12.018 0L12 0Z" fill-rule="nonzero" transform="matrix(1 0 0 1 64 192)" fill="rgb(165, 180, 252)" fill-opacity="0.3"/>
</svg>
